<svg id="Layer_1" data-name="Layer 1" xmlns="http://www.w3.org/2000/svg" viewBox="0 0 789.07 198.95"><defs><style>.cls-1,.cls-2,.cls-3,.cls-5,.cls-6,.cls-7,.cls-8,.cls-9{isolation:isolate;}.cls-2,.cls-3,.cls-5,.cls-6,.cls-7{font-size:77px;}.cls-2,.cls-3{fill:#002868;}.cls-2,.cls-3,.cls-5,.cls-6,.cls-7,.cls-8,.cls-9{font-family:RegulatorNova-Bold, Regulator Nova;font-weight:700;}.cls-2,.cls-6{letter-spacing:-0.02em;}.cls-3,.cls-7{letter-spacing:-0.04em;}.cls-4,.cls-5,.cls-6,.cls-7,.cls-8,.cls-9{fill:#f4f5f0;}.cls-8,.cls-9{font-size:42px;}.cls-8{letter-spacing:-0.03em;}</style></defs><g class="cls-1"><text class="cls-2" transform="translate(0 161.06)">a</text><text class="cls-3" transform="translate(51.44 161.06)">r</text><text class="cls-2" transform="translate(80.08 161.06)">olinas</text></g><path class="cls-4" d="M94.72,167.38" transform="translate(350.87 -16.25)"/><text class="cls-5" transform="translate(540 66.52)">ode</text><g class="cls-1"><text class="cls-6" transform="translate(486 161.06)">a</text><text class="cls-7" transform="translate(537.44 161.06)">r</text><text class="cls-6" transform="translate(566.08 161.06)">olinas</text></g><polygon class="cls-4" points="494.08 198.95 478.4 196.26 476.65 182.47 468.43 174.43 466.27 160.6 454.6 153.48 454.96 146.98 447.15 143.51 445.72 134.27 439 132.5 436.23 122.82 423.29 117.25 412.46 97.49 395.82 88.66 396.14 75.09 420.94 56.11 478.35 54.11 494.92 67.29 527.52 66.4 527.82 76.4 491.56 77.39 475.02 64.23 424.48 66 406.02 80.12 405.96 82.72 419.79 90.06 430.4 109.43 444.54 115.52 447.05 124.28 454.61 126.26 456.2 136.59 465.31 140.64 464.91 148.05 475.44 154.48 477.8 169.61 486.13 177.75 487.39 187.65 495.78 189.1 494.08 198.95"/><polygon class="cls-4" points="557.91 109.16 525.2 76.45 492.31 77.38 475.9 64.93 424.15 65.29 416.09 69.78 363.14 70.9 370.79 46.36 379.86 46.13 387.67 38.15 398.76 37.34 412.44 29.5 419.89 20.74 430.15 21.35 439.1 15.57 445.39 15.74 458.46 2.11 561.15 0 561.36 10 462.81 12.03 449.55 25.86 441.92 25.65 432.82 31.53 424.27 31.02 418.93 37.31 401.76 47.15 392.17 47.84 384.18 56.03 378.2 56.18 376.82 60.61 413.39 59.84 421.51 55.31 479.23 54.91 495.54 67.29 529.23 66.33 564.98 102.09 557.91 109.16"/><g class="cls-1"><text class="cls-8" transform="translate(715 38.41)">f</text><text class="cls-9" transform="translate(729.7 38.41)">or</text></g><text class="cls-9" transform="translate(715 79)">the</text></svg>