<?xml version="1.0" encoding="utf-8"?>
<!-- Generator: Adobe Illustrator 26.3.1, SVG Export Plug-In . SVG Version: 6.00 Build 0)  -->
<svg version="1.1" id="Layer_1" xmlns="http://www.w3.org/2000/svg" xmlns:xlink="http://www.w3.org/1999/xlink" x="0px" y="0px"
	 viewBox="0 0 124.6 144" style="enable-background:new 0 0 124.6 144;" xml:space="preserve">
<style type="text/css">
	.st0{fill:#002868;}
	.st1{enable-background:new    ;}
	.st2{fill:#F4F5F0;}
</style>
<g>
	<g>
		<path class="st0" d="M-1088.4,346c-61.2,0-98.5-40.5-98.5-90c0-48.6,37.8-90,99-90c60.7,0,98.1,41.4,98.1,90
			C-989.9,305.5-1027.2,346-1088.4,346z M-1087.9,206.1c-31.5,0-50.8,22.9-50.8,49.5c0,27.4,19.3,49.9,50.4,49.9
			c31.5,0,50.8-22.5,50.8-49.9C-1037.1,230-1056,206.1-1087.9,206.1z"/>
		<path class="st0" d="M-959.3,256.5c0-52.2,36-90,85.9-90c27,0,50.4,11.7,63.4,30.6v-89.5h46.8v236.6h-46.8l0.4-28.8
			c-13.9,19.3-37.8,31-63.9,31C-923.3,346.5-959.3,308.2-959.3,256.5z M-807.7,255.1c0-27.9-22.5-49-51.7-49
			c-30.1,0-51.7,20.7-51.7,49c0,29.2,21.6,50.8,51.7,50.8C-829.7,306-807.7,284.4-807.7,255.1z"/>
		<path class="st0" d="M-723.1,256c0-52.2,39.6-90.4,94.9-90.4c61.2,0,101.7,44.1,94.9,105.7l-141.2-0.4c2.2,22,22.5,37.8,47.7,37.8
			c18.9,0,33.7-5.4,48.1-20.7l36.4,21.1c-17.5,22-46.8,36.9-84.1,36.9C-685.8,346.9-723.1,308.2-723.1,256z M-579.6,239
			c-3.1-22.9-21.6-37.3-47.7-37.3c-24.7,0-44.1,15.3-47.2,37.3H-579.6z"/>
	</g>
	<g class="st1">
		<path class="st0" d="M-1429.8,681.1c0-52.2,36-90,85.9-90c26.5,0,50.4,11.7,63.9,31l-0.4-28.8h46.8v175h-46.8l0.4-28.8
			c-13.9,19.3-37.8,31.5-63.9,31.5C-1393.3,771.1-1429.8,733.3-1429.8,681.1z M-1277.7,680.2c0-27.9-22.5-49-51.7-49
			c-30.1,0-51.7,20.7-51.7,49c0,29.2,21.6,50.8,51.7,50.8C-1299.8,731-1277.7,709-1277.7,680.2z"/>
	</g>
	<g class="st1">
		<path class="st0" d="M-1140.6,691v77.8h-46.8V594.3h46.8l-1.3,28.8c9.4-19.8,29.7-35.1,63-31.5v42.7
			C-1123.9,630.3-1140.6,656.4-1140.6,691z"/>
	</g>
	<g class="st1">
		<path class="st0" d="M-971,771.1c-61.2,0-98.5-40.5-98.5-90c0-48.6,37.8-90,99-90c60.7,0,98.1,41.4,98.1,90
			C-872.5,730.6-909.8,771.1-971,771.1z M-970.5,631.2c-31.5,0-50.8,22.9-50.8,49.5c0,27.4,19.3,49.9,50.4,49.9
			c31.5,0,50.8-22.5,50.8-49.9C-920.2,655-938.6,631.2-970.5,631.2z"/>
		<path class="st0" d="M-838.3,532.7h45.9l0.9,236.1h-46.8L-838.3,532.7L-838.3,532.7z"/>
		<path class="st0" d="M-752.8,539.4c0-14.8,13-25.2,29.2-25.2s29.2,10.3,29.2,25.2s-13,24.7-29.2,24.7
			C-739.8,564.6-752.8,554.7-752.8,539.4z M-746.5,594.3h46.8v174.5h-46.8V594.3z"/>
		<path class="st0" d="M-526.6,681.1c0-33.3-10.3-49.5-37.8-49.5c-29.2,0-44.1,18.4-44.1,48.1v88.6h-46.8v-175h46.8v24.7
			c10.8-15.3,30.6-26.5,55.3-26.5c51.3,0,74.7,30.1,74.7,87.7v89.1h-48.1V681.1z"/>
		<path class="st0" d="M-447,681.1c0-52.2,36-90,85.9-90c26.5,0,50.4,11.7,63.9,31l-0.4-28.8h46.8v175h-46.8l0.4-28.8
			c-13.9,19.3-37.8,31.5-63.9,31.5C-411,771.1-447,733.3-447,681.1z M-295.4,680.2c0-27.9-22.5-49-51.7-49
			c-30.1,0-51.7,20.7-51.7,49c0,29.2,21.6,50.8,51.7,50.8C-317.4,731-295.4,709-295.4,680.2z"/>
		<path class="st0" d="M-148.7,772c-28.3,0.4-53.5-10.8-72.9-26.1l26.1-29.2c12.1,10.8,29.2,18.4,42.7,18.4
			c12.6,0,21.6-6.3,21.6-15.7c0-10.3-6.3-15.3-23.4-19.3c-40.5-9-60.7-26.5-60.7-55.3c0-30.1,25.6-52.2,62.5-52.6
			c23.8-0.4,48.1,9.9,63.4,25.6l-25.6,25.2c-9-8.5-22.5-13.9-33.7-13.9c-13.5,0-22,6.3-22,15.3c0,9.4,6.7,14.4,23.8,18
			c40.5,8.1,61.6,27.9,61.6,58C-84.9,749.9-111.4,771.5-148.7,772z"/>
	</g>
	<polygon class="st0" points="-1408.2,939.3 -1478.8,927.2 -1486.5,865.1 -1523.3,829.1 -1533.2,767 -1585.9,734.6 -1584.1,705.4 
		-1619.1,690.1 -1625.9,648.3 -1656,640.6 -1668.2,597 -1726.7,571.8 -1775.2,482.7 -1849.9,443.2 -1848.6,382 -1737,297 
		-1478.8,288 -1404.1,346.9 -1258,343.3 -1256.6,388.3 -1419.4,392.3 -1493.7,333.4 -1721.3,341.1 -1804,404.9 -1804.5,416.6 
		-1742.4,449.5 -1694.7,536.7 -1630.8,564.2 -1619.6,603.3 -1585.9,612.3 -1578.7,658.6 -1537.7,677.1 -1539.5,710.4 -1491.9,739.1 
		-1481.5,807.5 -1443.7,843.9 -1438.3,888.5 -1400.5,895.2 	"/>
	<polygon class="st0" points="-1121.2,535.4 -1268.3,388.3 -1416.3,392.3 -1490.1,336.6 -1722.6,337.9 -1759,358.2 -1997,363.6 
		-1962.8,252.9 -1921.9,252 -1886.8,216 -1836.9,212.4 -1775.2,177.3 -1741.9,137.7 -1695.6,140.4 -1655.6,114.4 -1627.2,115.3 
		-1568.3,54.1 -1106.4,44.2 -1105.5,89.2 -1549,98.6 -1608.4,160.7 -1642.5,159.8 -1683.9,186.3 -1722.2,184.1 -1746,212.4 
		-1823.4,256.5 -1866.5,259.6 -1902.5,296.5 -1929.5,297 -1935.4,317.2 -1771.2,313.6 -1734.8,293.4 -1474.8,291.6 -1401.4,346.9 
		-1249.9,342.9 -1089.3,503.4 	"/>
	<g class="st1">
		<path class="st0" d="M-395.7,217.4v-73.8h-12.1v-22h12.1c0-29.2,14.4-38.2,49-36.9l0.4,20.7c-18.9-1.8-24.7,3.6-24.7,16.2h22.5v22
			H-370v73.3L-395.7,217.4z"/>
	</g>
	<g class="st1">
		<path class="st0" d="M-286.4,218.3c-33.3,0-53.5-22-53.5-49c0-26.5,20.7-49,54-49c33.3,0,53.5,22.5,53.5,49
			C-232.8,196.2-253.1,218.3-286.4,218.3z M-286.4,142.2c-17.1,0-27.9,12.6-27.9,27c0,14.8,10.8,27.4,27.4,27.4
			c17.1,0,27.9-12.1,27.9-27.4C-258.5,155.3-268.8,142.2-286.4,142.2z"/>
		<path class="st0" d="M-184.7,174.6v42.7h-25.6V122h25.6l-0.9,15.7c4.9-10.8,16.2-18.9,34.6-17.1V144
			C-175.7,141.8-184.7,155.7-184.7,174.6z"/>
	</g>
	<g>
		<path class="st0" d="M-397,354.1v-27.4h-13v-21.6h13v-15.7l25.6-11.2v27h29.7v21.6h-29.7v27.4c0,18,4.9,26.1,29.7,23.4v23.4
			C-380.4,404.9-397,390.5-397,354.1z"/>
		<path class="st0" d="M-249,353.2c0-17.1-6.3-26.5-20.7-26.5c-15.3,0-23.8,9.9-23.8,24.3v49h-25.6V270.9h25.6v49
			c6.3-9,18-16.6,31.5-16.6c27,0,39.6,17.1,39.6,49v47.2H-249V353.2z"/>
		<path class="st0" d="M-201.8,351.9c0-28.3,21.6-49,51.7-49c33.3,0,55.3,24.3,51.7,57.6h-76.9c1.3,12.1,12.1,20.7,26.1,20.7
			c10.3,0,18.4-2.7,26.1-11.2l19.8,11.7c-9.4,12.1-25.6,20.2-45.9,20.2C-181.1,401.3-201.8,380.6-201.8,351.9z M-123.5,342.4
			c-1.8-12.6-11.7-20.2-26.1-20.2c-13.5,0-23.8,8.5-25.6,20.2H-123.5z"/>
	</g>
</g>
<path class="st0" d="M-1426.5,842.2"/>
<g>
	<polygon class="st0" points="124.6,108 124.6,36 62.3,0 0,36 0,108 62.3,144 	"/>
	<g>
		<g>
			<path class="st2" d="M58.8,64.4c-3.2,0-5.1-2.1-5.1-4.7c0-2.5,2-4.7,5.2-4.7c3.2,0,5.1,2.2,5.1,4.7C64,62.3,62,64.4,58.8,64.4z
				 M58.8,57.1c-1.6,0-2.7,1.2-2.7,2.6c0,1.4,1,2.6,2.6,2.6c1.6,0,2.7-1.2,2.7-2.6C61.5,58.3,60.5,57.1,58.8,57.1z"/>
			<path class="st2" d="M65.6,59.7c0-2.7,1.9-4.7,4.5-4.7c1.4,0,2.6,0.6,3.3,1.6v-4.7h2.4v12.4h-2.4l0-1.5c-0.7,1-2,1.6-3.3,1.6
				C67.4,64.4,65.6,62.4,65.6,59.7z M73.5,59.6c0-1.5-1.2-2.6-2.7-2.6c-1.6,0-2.7,1.1-2.7,2.6c0,1.5,1.1,2.7,2.7,2.7
				C72.3,62.3,73.5,61.2,73.5,59.6z"/>
			<path class="st2" d="M77.9,59.7c0-2.7,2.1-4.7,5-4.7c3.2,0,5.3,2.3,5,5.5l-7.4,0c0.1,1.2,1.2,2,2.5,2c1,0,1.8-0.3,2.5-1.1
				l1.9,1.1c-0.9,1.2-2.4,1.9-4.4,1.9C79.8,64.4,77.9,62.4,77.9,59.7z M85.4,58.8c-0.2-1.2-1.1-2-2.5-2c-1.3,0-2.3,0.8-2.5,2H85.4z"
				/>
		</g>
		<g class="st1">
			<path class="st2" d="M41,81.9c0-2.7,1.9-4.7,4.5-4.7c1.4,0,2.6,0.6,3.3,1.6l0-1.5h2.4v9.2h-2.4l0-1.5c-0.7,1-2,1.6-3.3,1.6
				C42.9,86.6,41,84.6,41,81.9z M48.9,81.9c0-1.5-1.2-2.6-2.7-2.6c-1.6,0-2.7,1.1-2.7,2.6c0,1.5,1.1,2.7,2.7,2.7
				C47.8,84.5,48.9,83.4,48.9,81.9z"/>
		</g>
		<g class="st1">
			<path class="st2" d="M56.1,82.4v4.1h-2.4v-9.1h2.4L56,78.9c0.5-1,1.6-1.8,3.3-1.6v2.2C57,79.2,56.1,80.6,56.1,82.4z"/>
		</g>
		<g class="st1">
			<path class="st2" d="M64.9,86.6c-3.2,0-5.1-2.1-5.1-4.7c0-2.5,2-4.7,5.2-4.7c3.2,0,5.1,2.2,5.1,4.7
				C70.1,84.5,68.1,86.6,64.9,86.6z M65,79.3c-1.6,0-2.7,1.2-2.7,2.6c0,1.4,1,2.6,2.6,2.6c1.6,0,2.7-1.2,2.7-2.6
				C67.6,80.5,66.6,79.3,65,79.3z"/>
			<path class="st2" d="M71.9,74.1h2.4l0,12.4h-2.4L71.9,74.1L71.9,74.1z"/>
			<path class="st2" d="M76.3,74.5c0-0.8,0.7-1.3,1.5-1.3c0.8,0,1.5,0.5,1.5,1.3s-0.7,1.3-1.5,1.3C77,75.8,76.3,75.3,76.3,74.5z
				 M76.7,77.4h2.4v9.1h-2.4V77.4z"/>
			<path class="st2" d="M88.2,81.9c0-1.7-0.5-2.6-2-2.6c-1.5,0-2.3,1-2.3,2.5v4.6h-2.4v-9.2h2.4v1.3c0.6-0.8,1.6-1.4,2.9-1.4
				c2.7,0,3.9,1.6,3.9,4.6v4.7h-2.5V81.9z"/>
			<path class="st2" d="M92.3,81.9c0-2.7,1.9-4.7,4.5-4.7c1.4,0,2.6,0.6,3.3,1.6l0-1.5h2.4v9.2h-2.4l0-1.5c-0.7,1-2,1.6-3.3,1.6
				C94.2,86.6,92.3,84.6,92.3,81.9z M100.2,81.9c0-1.5-1.2-2.6-2.7-2.6c-1.6,0-2.7,1.1-2.7,2.6c0,1.5,1.1,2.7,2.7,2.7
				C99.1,84.5,100.2,83.4,100.2,81.9z"/>
			<path class="st2" d="M107.9,86.7c-1.5,0-2.8-0.6-3.8-1.4l1.4-1.5c0.6,0.6,1.5,1,2.2,1c0.7,0,1.1-0.3,1.1-0.8c0-0.5-0.3-0.8-1.2-1
				c-2.1-0.5-3.2-1.4-3.2-2.9c0-1.6,1.3-2.7,3.3-2.8c1.2,0,2.5,0.5,3.3,1.3l-1.3,1.3c-0.5-0.4-1.2-0.7-1.8-0.7
				c-0.7,0-1.2,0.3-1.2,0.8c0,0.5,0.4,0.8,1.2,0.9c2.1,0.4,3.2,1.5,3.2,3C111.2,85.5,109.9,86.6,107.9,86.7z"/>
		</g>
		<polygon class="st2" points="42.1,95.4 38.4,94.8 38,91.5 36.1,89.6 35.6,86.4 32.8,84.7 32.9,83.2 31.1,82.4 30.7,80.2 
			29.1,79.8 28.5,77.5 25.5,76.2 22.9,71.5 19,69.5 19.1,66.3 24.9,61.8 38.4,61.3 42.3,64.4 50,64.2 50,66.6 41.5,66.8 37.6,63.7 
			25.7,64.1 21.4,67.5 21.4,68.1 24.6,69.8 27.1,74.4 30.5,75.8 31.1,77.8 32.8,78.3 33.2,80.7 35.3,81.7 35.2,83.4 37.7,84.9 
			38.3,88.5 40.2,90.4 40.5,92.8 42.5,93.1 		"/>
		<polygon class="st2" points="57.1,74.3 49.4,66.6 41.7,66.8 37.8,63.9 25.7,64 23.8,65 11.3,65.3 13.1,59.5 15.3,59.5 17.1,57.6 
			19.7,57.4 22.9,55.6 24.7,53.5 27.1,53.6 29.2,52.3 30.7,52.3 33.7,49.1 57.9,48.6 57.9,50.9 34.7,51.4 31.6,54.7 29.9,54.6 
			27.7,56 25.7,55.9 24.4,57.4 20.4,59.7 18.1,59.9 16.3,61.8 14.9,61.8 14.6,62.9 23.1,62.7 25,61.6 38.6,61.5 42.5,64.4 
			50.4,64.2 58.8,72.6 		"/>
		<g class="st1">
			<path class="st2" d="M95,57.6v-3.9h-0.6v-1.2H95c0-1.5,0.8-2,2.6-1.9l0,1.1c-1-0.1-1.3,0.2-1.3,0.8h1.2v1.2h-1.1v3.8L95,57.6z"/>
		</g>
		<g class="st1">
			<path class="st2" d="M100.7,57.7c-1.7,0-2.8-1.2-2.8-2.6c0-1.4,1.1-2.6,2.8-2.6c1.7,0,2.8,1.2,2.8,2.6
				C103.5,56.5,102.5,57.7,100.7,57.7z M100.7,53.7c-0.9,0-1.5,0.7-1.5,1.4c0,0.8,0.6,1.4,1.4,1.4c0.9,0,1.5-0.6,1.5-1.4
				C102.2,54.4,101.6,53.7,100.7,53.7z"/>
			<path class="st2" d="M106,55.4v2.2h-1.3v-5h1.3l0,0.8c0.3-0.6,0.8-1,1.8-0.9v1.2C106.5,53.7,106,54.4,106,55.4z"/>
		</g>
		<g>
			<path class="st2" d="M94.9,64.8v-1.4h-0.7v-1.1h0.7v-0.8l1.3-0.6v1.4h1.6v1.1h-1.6v1.4c0,0.9,0.3,1.4,1.6,1.2v1.2
				C95.8,67.5,94.9,66.7,94.9,64.8z"/>
			<path class="st2" d="M102.7,64.8c0-0.9-0.3-1.4-1.1-1.4c-0.8,0-1.2,0.5-1.2,1.3v2.6H99v-6.8h1.3V63c0.3-0.5,0.9-0.9,1.6-0.9
				c1.4,0,2.1,0.9,2.1,2.6v2.5h-1.4V64.8z"/>
			<path class="st2" d="M105.1,64.7c0-1.5,1.1-2.6,2.7-2.6c1.7,0,2.9,1.3,2.7,3h-4c0.1,0.6,0.6,1.1,1.4,1.1c0.5,0,1-0.1,1.4-0.6
				l1,0.6c-0.5,0.6-1.3,1.1-2.4,1.1C106.2,67.3,105.1,66.2,105.1,64.7z M109.2,64.2c-0.1-0.7-0.6-1.1-1.4-1.1
				c-0.7,0-1.2,0.4-1.3,1.1H109.2z"/>
		</g>
	</g>
</g>
</svg>
